{"title":"Game of Thrones S06E06 [720p] 450MB Incl.EngSub ~{KiNg}","uid":14730143,"size":470981207,"categoryP":"video","categoryS":"hd___tv_shows","magnet":"?xt=urn:btih:56aed52a351cfa047ffdd7b834f6e098d399c98f&amp;dn=Game+of+Thrones+S06E06+%5B720p%5D+450MB+Incl.EngSub+%7E%7BKiNg%7D&amp;tr=udp%3A%2F%2Ftracker.leechers-paradise.org%3A6969&amp;tr=udp%3A%2F%2Fzer0day.ch%3A1337&amp;tr=udp%3A%2F%2Fopen.demonii.com%3A1337&amp;tr=udp%3A%2F%2Ftracker.coppersurfer.tk%3A6969&amp;tr=udp%3A%2F%2Fexodus.desync.com%3A6969","seeders":3,"leechers":0,"uploader":"Uplaoderking","files":1,"time":1464586050,"description":"\nGeneral\r\nFormat : Matroska\r\nFormat version : Version 4 / Version 2\r\nFile size : 449 MiB\r\nDuration : 51mn 20s\r\nOverall bit rate : 1 223 Kbps\r\n\r\nVideo\r\nID : 1\r\nFormat : AVC\r\nFormat/Info : Advanced Video Codec\r\nFormat profile :   \r\nCodec ID : V_MPEG4/ISO/AVC\r\nDuration : 51mn 20s\r\nBit rate : 1 142 Kbps\r\nWidth : 1 280 pixels\r\nHeight : 704 pixels\r\nDisplay aspect ratio : 16:9\r\nFrame rate mode : Constant\r\nFrame rate : 23.976 (24000/1001) fps\r\nColor space : YUV\r\nChroma subsampling : 4:2:0\r\nBit depth : 8 bits\r\nScan type : Progressive\r\nBits/(Pixel*Frame) : 0.053\r\n\r\nAudio\r\nID : 2\r\nFormat : AAC\r\nFormat/Info : Advanced Audio Codec\r\nFormat profile : LC\r\nCodec ID : A_AAC\r\nDuration : 51mn 20s\r\nBit rate : 79.2 Kbps\r\nChannel(s) : 2 channels\r\nChannel positions : Front: L R\r\nSampling rate : 48.0 KHz\r\nFrame rate : 46.875 fps (1024 spf)\r\nCompression mode : Lossy\r\nDelay relative to video : 9ms\r\nStream size : 29.1 MiB (6%)\r\nLanguage : English\r\nDefault : No\r\nForced : No\r\n\r\nText\r\nID : 3\r\nFormat : UTF-8\r\nCodec ID : S_TEXT/UTF8\r\nCodec ID/Info : UTF-8 Plain Text\r\nDuration : 51mn 20s\r\nBit rate : 47 bps\r\nCount of elements : 606\r\nStream size : 17.7 KiB (0%)\r\nTitle : English\r\nLanguage : English\r\nDefault : Yes\r\nForced : No","torrent":{"xt":"urn:btih:56aed52a351cfa047ffdd7b834f6e098d399c98f","amp;dn":"Game+of+Thrones+S06E06+%5B720p%5D+450MB+Incl.EngSub+%7E%7BKiNg%7D","amp;tr":["udp%3A%2F%2Ftracker.leechers-paradise.org%3A6969","udp%3A%2F%2Fzer0day.ch%3A1337","udp%3A%2F%2Fopen.demonii.com%3A1337","udp%3A%2F%2Ftracker.coppersurfer.tk%3A6969","udp%3A%2F%2Fexodus.desync.com%3A6969"],"infoHash":"56aed52a351cfa047ffdd7b834f6e098d399c98f","infoHashBuffer":{"type":"Buffer","data":[86,174,213,42,53,28,250,4,127,253,215,184,52,246,224,152,211,153,201,143]},"announce":[],"urlList":[]}}